<?xml version="1.0" standalone="no"?>
<!DOCTYPE svg PUBLIC "-//W3C//DTD SVG 20010904//EN"
 "http://www.w3.org/TR/2001/REC-SVG-20010904/DTD/svg10.dtd">
<svg version="1.0" xmlns="http://www.w3.org/2000/svg"
 width="225.000000pt" height="225.000000pt" viewBox="0 0 225.000000 225.000000"
 preserveAspectRatio="xMidYMid meet">
<metadata>
Created by potrace 1.14, written by Peter Selinger 2001-2017
</metadata>
<g transform="translate(0.000000,225.000000) scale(0.100000,-0.100000)"
fill="#000000" stroke="none">
<path d="M923 2195 c-625 -113 -1021 -736 -863 -1356 89 -349 361 -643 702
-759 142 -48 191 -55 368 -54 145 1 177 4 265 27 522 139 875 645 816 1172
-56 494 -417 885 -899 970 -96 18 -293 17 -389 0z m395 -842 l2 -173 28 0 c22
0 40 15 92 78 36 42 102 121 148 175 l83 97 55 0 c29 0 54 -4 54 -8 0 -7 -82
-106 -261 -314 l-49 -56 156 -189 c87 -103 164 -196 172 -205 14 -17 11 -18
-54 -17 l-69 1 -143 174 c-135 164 -145 174 -178 174 l-34 0 0 -175 0 -175
-55 0 -55 0 0 388 c0 214 3 392 7 396 4 4 28 6 53 4 l45 -3 3 -172z m-427 157
c96 -27 149 -97 149 -199 0 -75 -23 -124 -75 -160 l-35 -23 32 -22 c62 -42 72
-66 78 -190 5 -82 11 -122 23 -140 9 -14 17 -28 17 -31 0 -3 -26 -5 -58 -5
-54 0 -60 2 -71 27 -7 15 -15 74 -18 132 -6 101 -7 106 -39 140 l-32 36 -121
3 -121 4 0 -171 0 -171 -55 0 -55 0 0 390 0 390 173 0 c94 0 188 -5 208 -10z"/>
<path d="M620 1305 l0 -135 113 0 c121 0 147 8 180 52 26 34 28 110 4 154 -24
47 -77 64 -197 64 l-100 0 0 -135z"/>
</g>
</svg>
